<?xml version="1.0" encoding="UTF-8"?>
<svg width="186" height="162" version="1.1" xml:space="preserve" xmlns="http://www.w3.org/2000/svg"
     xmlns:cc="http://creativecommons.org/ns#" xmlns:dc="http://purl.org/dc/elements/1.1/"
     xmlns:rdf="http://www.w3.org/1999/02/22-rdf-syntax-ns#"><title>Alpine Linux logo</title>
    <metadata><rdf:RDF><cc:Work rdf:about=""><dc:format>image/svg+xml</dc:format><dc:type
            rdf:resource="http://purl.org/dc/dcmitype/StillImage"/><dc:title/></cc:Work></rdf:RDF></metadata>
    <g transform="matrix(1.25 0 0 -1.25 -268 592)"><g transform="translate(687 398)" style="fill:#0d597f">
        <path d="m0 0c-3.74 6.41-3.73 19.4 0.023 26.2 1.64 2.97 6.62 9.56 28.4 9.56 4.47 0 7.74-0.229 10.1-0.554 5.28-0.71 9.3-2.51 9.3-7.42 0-6.49-9.56-6.55-9.56-6.55h-20.3c-8.61 0-9.27-11.9-9.27-11.9h29.5c10.4 0 21.1 4.65 21.1 18.3 0 9.05-5.21 15.1-13.7 17.5-8.5 2.33-11.8 2.21-23.4 2-9.27-0.166-14.6-2.2-18-3.26-5.91-1.86-11.2-5.32-14.8-11.8-5.82-10.5-5.76-27.9 0.115-38 6.28-10.8 17.1-16.5 30.1-16.6h39.7l1e-3 11.9h-39.7c-11.4-0.034-17.1 6.25-19.7 10.7" style="fill:#0d597f"/></g>
        <g transform="translate(268 393)" style="fill:#0d597f"><path d="m0 0v15.7l-11.3-11.3c1.22-0.847 2.36-1.54 3.44-2.11 1.08-0.567 2.09-1 3.03-1.34 0.941-0.334 1.81-0.562 2.62-0.71 0.804-0.147 1.54-0.213 2.21-0.222m57.8 1.3c0.02-0.017 0.13-0.11 0.333-0.239 0.204-0.13 0.502-0.297 0.898-0.462 0.395-0.164 0.889-0.327 1.48-0.448 0.596-0.122 1.29-0.202 2.1-0.202 0.671 0 1.41 0.059 2.22 0.2 0.812 0.142 1.69 0.367 2.64 0.699 0.953 0.333 1.98 0.773 3.07 1.34 1.09 0.572 2.26 1.28 3.5 2.14l-8.57 8.4-28.4 28.5-12.5-12.5-16.8 17.3-42.2-41.7c1.24-0.86 2.4-1.56 3.49-2.14 1.09-0.571 2.12-1.01 3.07-1.34 0.951-0.332 1.83-0.557 2.64-0.698 0.81-0.142 1.55-0.201 2.22-0.201 0.804 0 1.5 0.08 2.1 0.202 0.596 0.121 1.09 0.284 1.48 0.449 0.396 0.164 0.693 0.331 0.897 0.461s0.314 0.223 0.334 0.24l19.1 19.1 6.81 6.53 18.9-18.9 6.59-6.78c0.02-0.017 0.13-0.11 0.334-0.239 0.204-0.13 0.501-0.297 0.897-0.462 0.396-0.164 0.89-0.327 1.48-0.448 0.596-0.122 1.3-0.202 2.1-0.202 0.67 0 1.41 0.059 2.22 0.2 0.811 0.142 1.69 0.367 2.64 0.699 0.952 0.333 1.98 0.773 3.07 1.34 1.09 0.572 2.26 1.28 3.5 2.14l-15.1 14.8 2.82 2.82 13.1-13.1 7.64-7.57m-0.163 79 37.2-64.5-37.2-64.5h-74.5l-37.2 64.5 37.2 64.5z" style="fill:#0d597f"/></g>
    </g></svg>